# xmcd
#
# Track frame offsets:
#	150
#	14253
#	32703
#	54588
#	76622
#	93209
#	113803
#	133707
#	149528
#	167471
#	182598
#	201938
#
# Disc length: 2861 seconds
#
# Revision: 0
# Processed by: cddbd v1.5.1PL0 Copyright (c) Steve Scherf et al.
# Submitted via: EasyCDDAExtractor 4.6.0.1
#
DISCID=950b2b0c
DTITLE=safadf - sadfasdfasf
DYEAR=1980
DGENRE=POP
TTITLE0=sasa
TTITLE1=sada
TTITLE2=sad
TTITLE3=asd
TTITLE4=sada
TTITLE5=adasfds
TTITLE6=sadf ag
TTITLE7=fsd
TTITLE8=fasdf
TTITLE9=fasdghgj
TTITLE10=sdfsf
TTITLE11=sdfag
EXTD=
EXTT0=
EXTT1=
EXTT2=
EXTT3=
EXTT4=
EXTT5=
EXTT6=
EXTT7=
EXTT8=
EXTT9=
EXTT10=
EXTT11=
PLAYORDER=
